<svg version="1.1" xmlns="http://www.w3.org/2000/svg" xmlns:xlink="http://www.w3.org/1999/xlink" viewBox="0 0 172 172"><g fill="none" fill-rule="nonzero" stroke="none" stroke-width="1" stroke-linecap="butt" stroke-linejoin="miter" stroke-miterlimit="10" stroke-dasharray="" stroke-dashoffset="0" font-family="none" font-weight="none" font-size="none" text-anchor="none" style="mix-blend-mode: normal"><path d="M0,172v-172h172v172z" fill="none"></path><g fill="#000000"><path d="M17.2,27.52c-3.76014,0 -6.88,3.11986 -6.88,6.88v27.52h-6.88c-1.89978,0.00019 -3.43981,1.54022 -3.44,3.44v24.08c0.00019,1.89978 1.54022,3.43981 3.44,3.44h6.88v10.32h-3.44c-1.89978,0.00019 -3.43981,1.54022 -3.44,3.44v20.64c0.00019,1.89978 1.54022,3.43981 3.44,3.44h3.44v6.88c0,3.76014 3.11986,6.88 6.88,6.88h144.48c1.89978,-0.00019 3.43981,-1.54022 3.44,-3.44v-5.45563l5.87219,-5.87219c0.64512,-0.64504 1.00764,-1.5199 1.00781,-2.43219v-61.92c-0.00018,-0.91228 -0.36269,-1.78715 -1.00781,-2.43219l-5.87219,-5.87219v-19.21563c0.00006,-0.93545 -0.3808,-1.83059 -1.05485,-2.47922l-7.1689,-6.88c-0.63931,-0.6149 -1.49141,-0.95911 -2.37844,-0.96078zM17.2,34.4h135.92703l5.11297,4.90469v19.17531c0.00018,0.91228 0.36269,1.78715 1.00781,2.43219l5.87219,5.87219v59.07125l-5.87219,5.87219c-0.64512,0.64504 -1.00764,1.5199 -1.00781,2.43219v3.44h-141.04v-6.88h13.76c1.89978,-0.00019 3.43981,-1.54022 3.44,-3.44v-20.64c-0.00019,-1.89978 -1.54022,-3.43981 -3.44,-3.44h-13.76v-10.32h13.76c1.89978,-0.00019 3.43981,-1.54022 3.44,-3.44v-24.08c-0.00019,-1.89978 -1.54022,-3.43981 -3.44,-3.44h-13.76zM27.52,41.28c-1.89888,0 -3.44,1.54112 -3.44,3.44v6.88c0,1.89888 1.54112,3.44 3.44,3.44h6.88c1.89888,0 3.44,-1.54112 3.44,-3.44v-6.88c0,-1.89888 -1.54112,-3.44 -3.44,-3.44zM48.16,41.28c-1.89986,0 -3.44,1.54014 -3.44,3.44c0,1.89986 1.54014,3.44 3.44,3.44c1.89986,0 3.44,-1.54014 3.44,-3.44c0,-1.89986 -1.54014,-3.44 -3.44,-3.44zM61.92,41.28c-1.24059,-0.01754 -2.39452,0.63425 -3.01993,1.7058c-0.62541,1.07155 -0.62541,2.39684 0,3.46839c0.62541,1.07155 1.77935,1.72335 3.01993,1.7058h44.72c1.24059,0.01754 2.39452,-0.63425 3.01993,-1.7058c0.62541,-1.07155 0.62541,-2.39684 0,-3.46839c-0.62541,-1.07155 -1.77935,-1.72335 -3.01993,-1.7058zM120.4,41.28c-1.24059,-0.01754 -2.39452,0.63425 -3.01993,1.7058c-0.62541,1.07155 -0.62541,2.39684 0,3.46839c0.62541,1.07155 1.77935,1.72335 3.01993,1.7058h27.52c1.24059,0.01754 2.39452,-0.63425 3.01993,-1.7058c0.62541,-1.07155 0.62541,-2.39684 0,-3.46839c-0.62541,-1.07155 -1.77935,-1.72335 -3.01993,-1.7058zM94.6,55.04c-6.60889,0 -12.04,5.43111 -12.04,12.04c0,6.60889 5.43111,12.04 12.04,12.04c5.74224,0 9.61601,-2.98319 12.04,-5.81172c2.42399,2.82853 6.29776,5.81172 12.04,5.81172c6.60889,0 12.04,-5.43111 12.04,-12.04c0,-6.60889 -5.43111,-12.04 -12.04,-12.04c-5.74224,0 -9.61601,2.98319 -12.04,5.81172c-2.42399,-2.82853 -6.29776,-5.81172 -12.04,-5.81172zM94.6,61.92c5.05519,0 7.18232,3.51846 8.0289,5.16c-0.84658,1.64154 -2.97371,5.16 -8.0289,5.16c-2.89239,0 -5.16,-2.26761 -5.16,-5.16c0,-2.89239 2.26761,-5.16 5.16,-5.16zM118.68,61.92c2.89239,0 5.16,2.26761 5.16,5.16c0,2.89239 -2.26761,5.16 -5.16,5.16c-5.05519,0 -7.18232,-3.51846 -8.0289,-5.16c0.84658,-1.64154 2.97371,-5.16 8.0289,-5.16zM6.88,68.8h20.64v17.2h-20.64zM154.8,68.8c-1.89986,0 -3.44,1.54014 -3.44,3.44c0,1.89986 1.54014,3.44 3.44,3.44c1.89986,0 3.44,-1.54014 3.44,-3.44c0,-1.89986 -1.54014,-3.44 -3.44,-3.44zM48.16,72.24c-1.89978,0.00019 -3.43981,1.54022 -3.44,3.44v13.76c0.00019,1.89978 1.54022,3.43981 3.44,3.44h13.76c1.89978,-0.00019 3.43981,-1.54022 3.44,-3.44v-13.76c-0.00019,-1.89978 -1.54022,-3.43981 -3.44,-3.44zM51.6,79.12h6.88v6.88h-6.88zM79.12,86c-1.89978,0.00019 -3.43981,1.54022 -3.44,3.44v17.2c0.00019,1.89978 1.54022,3.43981 3.44,3.44h75.68c1.89978,-0.00019 3.43981,-1.54022 3.44,-3.44v-17.2c-0.00019,-1.89978 -1.54022,-3.43981 -3.44,-3.44zM82.56,92.88h68.8v10.32h-68.8zM46.44,103.2c-2.84979,0 -5.16,2.31021 -5.16,5.16c0,2.84979 2.31021,5.16 5.16,5.16c2.84979,0 5.16,-2.31021 5.16,-5.16c0,-2.84979 -2.31021,-5.16 -5.16,-5.16zM63.64,103.2c-2.84979,0 -5.16,2.31021 -5.16,5.16c0,2.84979 2.31021,5.16 5.16,5.16c2.84979,0 5.16,-2.31021 5.16,-5.16c0,-2.84979 -2.31021,-5.16 -5.16,-5.16zM10.32,110.08h17.2v13.76h-17.2zM154.8,120.4c-1.89986,0 -3.44,1.54014 -3.44,3.44c0,1.89986 1.54014,3.44 3.44,3.44c1.89986,0 3.44,-1.54014 3.44,-3.44c0,-1.89986 -1.54014,-3.44 -3.44,-3.44zM48.16,123.84c-1.89986,0 -3.44,1.54014 -3.44,3.44c0,1.89986 1.54014,3.44 3.44,3.44c1.89986,0 3.44,-1.54014 3.44,-3.44c0,-1.89986 -1.54014,-3.44 -3.44,-3.44zM72.24,123.84c-1.24059,-0.01754 -2.39452,0.63425 -3.01993,1.7058c-0.62541,1.07155 -0.62541,2.39684 0,3.46839c0.62541,1.07155 1.77935,1.72335 3.01993,1.7058h34.4c1.24059,0.01754 2.39452,-0.63425 3.01993,-1.7058c0.62541,-1.07155 0.62541,-2.39684 0,-3.46839c-0.62541,-1.07155 -1.77935,-1.72335 -3.01993,-1.7058zM120.4,123.84c-1.24059,-0.01754 -2.39452,0.63425 -3.01993,1.7058c-0.62541,1.07155 -0.62541,2.39684 0,3.46839c0.62541,1.07155 1.77935,1.72335 3.01993,1.7058h20.64c1.24059,0.01754 2.39452,-0.63425 3.01993,-1.7058c0.62541,-1.07155 0.62541,-2.39684 0,-3.46839c-0.62541,-1.07155 -1.77935,-1.72335 -3.01993,-1.7058z"></path></g></g></svg>