<svg version="1.1" xmlns="http://www.w3.org/2000/svg" xmlns:xlink="http://www.w3.org/1999/xlink" viewBox="0 0 172 172"><g fill="none" fill-rule="nonzero" stroke="none" stroke-width="1" stroke-linecap="butt" stroke-linejoin="miter" stroke-miterlimit="10" stroke-dasharray="" stroke-dashoffset="0" font-family="none" font-weight="none" font-size="none" text-anchor="none" style="mix-blend-mode: normal"><path d="M0,172v-172h172v172z" fill="none"></path><g fill="#000000"><path d="M13.4375,16.125c-4.56665,0 -8.0625,3.49585 -8.0625,8.0625v96.75c0,4.56665 3.49585,8.0625 8.0625,8.0625h55.62915l-6.4458,21.5h-14.24585c-1.6167,0 -2.6875,1.0708 -2.6875,2.6875c0,1.6167 1.0708,2.6875 2.6875,2.6875h75.25c1.6167,0 2.6875,-1.0708 2.6875,-2.6875c0,-1.6167 -1.0708,-2.6875 -2.6875,-2.6875h-14.24585l-6.4458,-21.5h55.62915c4.56665,0 8.0625,-3.49585 8.0625,-8.0625v-96.75c0,-4.56665 -3.49585,-8.0625 -8.0625,-8.0625zM13.4375,21.5h145.125c1.6167,0 2.6875,1.0708 2.6875,2.6875v2.6875h-150.5v-2.6875c0,-1.6167 1.0708,-2.6875 2.6875,-2.6875zM10.75,32.25h150.5v69.875h-61.55005c-1.6062,0 -2.6875,1.0708 -2.6875,2.6875c0,1.6167 1.0813,2.6875 2.6875,2.6875h61.55005v13.4375c0,1.6167 -1.0708,2.6875 -2.6875,2.6875h-145.125c-1.6167,0 -2.6875,-1.0708 -2.6875,-2.6875v-13.4375h62.07495c1.6167,0 2.6875,-1.0708 2.6875,-2.6875c0,-1.6167 -1.0708,-2.6875 -2.6875,-2.6875h-62.07495zM56.4375,43c-1.6167,0 -2.6875,1.0708 -2.6875,2.6875c0,1.6167 1.0708,2.6875 2.6875,2.6875h5.375c1.6167,0 2.6875,-1.0708 2.6875,-2.6875c0,-1.6167 -1.0708,-2.6875 -2.6875,-2.6875zM56.4375,53.75c-1.6167,0 -2.6875,1.0708 -2.6875,2.6875c0,1.6167 1.0708,2.6875 2.6875,2.6875h5.375c1.6167,0 2.6875,-1.0708 2.6875,-2.6875c0,-1.6167 -1.0708,-2.6875 -2.6875,-2.6875zM72.5625,53.75c-1.6167,0 -2.6875,1.0708 -2.6875,2.6875c0,1.6167 1.0708,2.6875 2.6875,2.6875h5.375c1.6167,0 2.6875,-1.0708 2.6875,-2.6875c0,-1.6167 -1.0708,-2.6875 -2.6875,-2.6875zM104.8125,53.75c-1.6167,0 -2.6875,1.0708 -2.6875,2.6875c0,1.6167 1.0708,2.6875 2.6875,2.6875h5.375c1.6167,0 2.6875,-1.0708 2.6875,-2.6875c0,-1.6167 -1.0708,-2.6875 -2.6875,-2.6875zM56.4375,64.5c-1.6167,0 -2.6875,1.0708 -2.6875,2.6875c0,1.6167 1.0708,2.6875 2.6875,2.6875h5.375c1.6167,0 2.6875,-1.0708 2.6875,-2.6875c0,-1.6167 -1.0708,-2.6875 -2.6875,-2.6875zM72.5625,64.5c-1.6167,0 -2.6875,1.0708 -2.6875,2.6875c0,1.6167 1.0708,2.6875 2.6875,2.6875h5.375c1.6167,0 2.6875,-1.0708 2.6875,-2.6875c0,-1.6167 -1.0708,-2.6875 -2.6875,-2.6875zM88.6875,64.5c-1.6167,0 -2.6875,1.0708 -2.6875,2.6875c0,1.6167 1.0708,2.6875 2.6875,2.6875h5.375c1.6167,0 2.6875,-1.0708 2.6875,-2.6875c0,-1.6167 -1.0708,-2.6875 -2.6875,-2.6875zM104.8125,64.5c-1.6167,0 -2.6875,1.0708 -2.6875,2.6875c0,1.6167 1.0708,2.6875 2.6875,2.6875h5.375c1.6167,0 2.6875,-1.0708 2.6875,-2.6875c0,-1.6167 -1.0708,-2.6875 -2.6875,-2.6875zM40.3125,75.25c-1.6167,0 -2.6875,1.0708 -2.6875,2.6875c0,1.6167 1.0708,2.6875 2.6875,2.6875h5.375c1.6167,0 2.6875,-1.0708 2.6875,-2.6875c0,-1.6167 -1.0708,-2.6875 -2.6875,-2.6875zM56.4375,75.25c-1.6167,0 -2.6875,1.0708 -2.6875,2.6875c0,1.6167 1.0708,2.6875 2.6875,2.6875h5.375c1.6167,0 2.6875,-1.0708 2.6875,-2.6875c0,-1.6167 -1.0708,-2.6875 -2.6875,-2.6875zM72.5625,75.25c-1.6167,0 -2.6875,1.0708 -2.6875,2.6875c0,1.6167 1.0708,2.6875 2.6875,2.6875h5.375c1.6167,0 2.6875,-1.0708 2.6875,-2.6875c0,-1.6167 -1.0708,-2.6875 -2.6875,-2.6875zM88.6875,75.25c-1.6167,0 -2.6875,1.0708 -2.6875,2.6875c0,1.6167 1.0708,2.6875 2.6875,2.6875h5.375c1.6167,0 2.6875,-1.0708 2.6875,-2.6875c0,-1.6167 -1.0708,-2.6875 -2.6875,-2.6875zM104.8125,75.25c-1.6167,0 -2.6875,1.0708 -2.6875,2.6875c0,1.6167 1.0708,2.6875 2.6875,2.6875h5.375c1.6167,0 2.6875,-1.0708 2.6875,-2.6875c0,-1.6167 -1.0708,-2.6875 -2.6875,-2.6875zM40.3125,86c-1.6167,0 -2.6875,1.0708 -2.6875,2.6875c0,1.6167 1.0708,2.6875 2.6875,2.6875h5.375c1.6167,0 2.6875,-1.0708 2.6875,-2.6875c0,-1.6167 -1.0708,-2.6875 -2.6875,-2.6875zM56.4375,86c-1.6167,0 -2.6875,1.0708 -2.6875,2.6875c0,1.6167 1.0708,2.6875 2.6875,2.6875h5.375c1.6167,0 2.6875,-1.0708 2.6875,-2.6875c0,-1.6167 -1.0708,-2.6875 -2.6875,-2.6875zM72.5625,86c-1.6167,0 -2.6875,1.0708 -2.6875,2.6875c0,1.6167 1.0708,2.6875 2.6875,2.6875h5.375c1.6167,0 2.6875,-1.0708 2.6875,-2.6875c0,-1.6167 -1.0708,-2.6875 -2.6875,-2.6875zM88.6875,86c-1.6167,0 -2.6875,1.0708 -2.6875,2.6875c0,1.6167 1.0708,2.6875 2.6875,2.6875h5.375c1.6167,0 2.6875,-1.0708 2.6875,-2.6875c0,-1.6167 -1.0708,-2.6875 -2.6875,-2.6875zM104.8125,86c-1.6167,0 -2.6875,1.0708 -2.6875,2.6875c0,1.6167 1.0708,2.6875 2.6875,2.6875h5.375c1.6167,0 2.6875,-1.0708 2.6875,-2.6875c0,-1.6167 -1.0708,-2.6875 -2.6875,-2.6875zM120.9375,86c-1.6167,0 -2.6875,1.0708 -2.6875,2.6875c0,1.6167 1.0708,2.6875 2.6875,2.6875h5.375c1.6167,0 2.6875,-1.0708 2.6875,-2.6875c0,-1.6167 -1.0708,-2.6875 -2.6875,-2.6875zM83.57495,102.125c-1.6062,0 -2.6875,1.0708 -2.6875,2.6875c0,1.6167 1.0813,2.6875 2.6875,2.6875h5.11255c1.6167,0 2.6875,-1.0708 2.6875,-2.6875c0,-1.6167 -1.0708,-2.6875 -2.6875,-2.6875zM74.44165,129h22.84375l6.71875,21.5h-36.0083z"></path></g></g></svg>