<svg version="1.1" xmlns="http://www.w3.org/2000/svg" xmlns:xlink="http://www.w3.org/1999/xlink" viewBox="0 0 172 172"><g fill="none" fill-rule="nonzero" stroke="none" stroke-width="1" stroke-linecap="butt" stroke-linejoin="miter" stroke-miterlimit="10" stroke-dasharray="" stroke-dashoffset="0" font-family="none" font-weight="none" font-size="none" text-anchor="none" style="mix-blend-mode: normal"><path d="M0,172v-172h172v172z" fill="none"></path><g fill="#000000"><path d="M72.24,0c-20.68031,0 -32.86812,11.27406 -36.765,21.1775c-10.66937,1.98875 -20.29062,9.1375 -25.155,20.3175c-4.99875,11.47563 -4.78375,26.91531 3.1175,44.29c-4.47469,5.83188 -7.06812,13.34344 -5.805,20.9625c1.23625,7.525 6.45,14.53938 15.48,18.705c-3.655,8.43875 -2.4725,16.67594 2.15,22.4675c4.79719,6.02 12.60438,9.32563 20.7475,9.89c2.40531,6.30219 6.86656,10.48125 11.7175,12.255c5.4825,2.00219 11.05906,1.935 14.5125,1.935c5.65719,0 10.62906,-2.70094 13.76,-6.88c3.13094,4.16563 8.11625,6.83969 13.76,6.88c3.84313,0.02688 9.41969,-0.94062 14.835,-3.87c4.77031,-2.58 9.01656,-7.18906 11.395,-13.545c7.71313,-0.26875 15.34563,-1.88125 20.425,-6.7725c2.78156,-2.6875 4.58219,-6.39625 4.8375,-10.75c0.20156,-3.44 -0.79281,-7.33687 -2.4725,-11.5025c9.1375,-4.13875 14.56625,-11.12625 15.91,-18.705c1.35719,-7.60562 -1.38406,-15.22469 -6.1275,-21.07c7.90125,-17.37469 8.11625,-32.81437 3.1175,-44.29c-4.86437,-11.18 -14.48562,-18.32875 -25.155,-20.3175c-3.89687,-9.90344 -16.08469,-21.1775 -36.765,-21.1775c-5.10625,0 -9.91687,1.31688 -13.0075,5.2675c-0.28219,0.36281 -0.51062,0.79281 -0.7525,1.1825c-0.24187,-0.38969 -0.47031,-0.81969 -0.7525,-1.1825c-3.09062,-3.95062 -7.90125,-5.2675 -13.0075,-5.2675zM72.24,6.88c4.13875,0 6.14094,0.68531 7.6325,2.58c1.49156,1.89469 2.6875,6.00656 2.6875,13.4375v131.9025c0,6.27531 -4.16562,10.32 -10.32,10.32c-3.42656,0 -8.17,-0.05375 -12.1475,-1.505c-3.9775,-1.45125 -7.16219,-3.89687 -8.6,-9.675l-0.645,-2.58h-2.6875c-6.97406,0 -13.84062,-3.13094 -17.5225,-7.74c-3.68187,-4.60906 -4.78375,-10.44094 -0.215,-18.06l2.2575,-3.655l-4.085,-1.29c-9.32562,-3.10406 -13.16875,-8.78812 -14.19,-14.9425c-0.99437,-6.04687 1.15563,-12.72531 5.0525,-17.0925c0.08063,-0.06719 0.14781,-0.13437 0.215,-0.215l0.1075,-0.1075c0,0 8.35813,-9.1375 18.06,-9.1375c12.255,0 18.275,5.9125 18.275,5.9125c0.84656,1.00781 2.20375,1.43781 3.46688,1.11531c1.27656,-0.3225 2.2575,-1.35719 2.52625,-2.63375c0.26875,-1.29 -0.22844,-2.62031 -1.26313,-3.42656c0,0 -8.39844,-7.8475 -23.005,-7.8475c-8.58656,0 -15.54719,4.47469 -19.565,7.8475c-6.00656,-14.71406 -5.4825,-26.91531 -1.6125,-35.7975c4.24625,-9.76906 12.51031,-15.68156 21.5,-16.77l2.365,-0.3225l0.5375,-2.15c1.85438,-6.47687 11.87875,-18.1675 31.175,-18.1675zM99.76,6.88c19.29625,0 29.32063,11.69063 31.175,18.1675l0.5375,2.15l2.365,0.3225c8.98969,1.08844 17.25375,7.00094 21.5,16.77c3.80281,8.73438 4.39406,20.65344 -1.29,35.045c-1.00781,0.47031 -1.72,1.38406 -1.935,2.4725c0,0 -0.69875,3.19813 -4.515,6.88c-3.81625,3.68188 -10.70969,7.6325 -23.7575,7.6325c-1.23625,-0.01344 -2.39187,0.63156 -3.02344,1.70656c-0.61813,1.075 -0.61813,2.39187 0,3.46687c0.63156,1.075 1.78719,1.72 3.02344,1.70656c14.47219,0 23.39469,-4.64937 28.4875,-9.5675c0.87344,-0.83312 1.59906,-1.63937 2.2575,-2.4725c2.84875,4.13875 4.21938,9.41969 3.3325,14.405c-1.08844,6.1275 -5.17344,11.9325 -14.5125,15.05l-3.7625,1.1825l1.72,3.5475c2.39188,4.79719 3.17125,8.54625 3.01,11.2875c-0.16125,2.74125 -1.11531,4.6225 -2.795,6.235c-3.29219,3.17125 -10.01094,4.98531 -17.3075,5.0525c-4.4075,-1.57219 -7.83406,-3.82969 -10.2125,-6.88c-2.48594,-3.19812 -3.9775,-7.45781 -3.9775,-13.76c0.02688,-1.06156 -0.44344,-2.06937 -1.26312,-2.74125c-0.80625,-0.67187 -1.89469,-0.92719 -2.92938,-0.69875c-1.59906,0.36281 -2.72781,1.80063 -2.6875,3.44c0,7.45781 1.94844,13.51813 5.4825,18.06c2.83531,3.64156 6.59781,6.1275 10.8575,7.955c-1.77375,4.17906 -4.82406,6.94719 -8.2775,8.815c-4.17906,2.2575 -8.97625,3.02344 -11.5025,3.01c-6.18125,-0.04031 -10.32,-4.04469 -10.32,-10.32v-131.9025c0,-7.43094 1.19594,-11.54281 2.6875,-13.4375c1.49156,-1.89469 3.49375,-2.58 7.6325,-2.58zM65.0375,34.2925c-0.14781,0.02688 -0.29562,0.06719 -0.43,0.1075c-1.59906,0.36281 -2.72781,1.80063 -2.6875,3.44c0,0.57781 -0.59125,3.38625 -2.9025,5.6975c-2.31125,2.31125 -6.38281,4.6225 -14.2975,4.6225c-1.23625,-0.01344 -2.39187,0.63156 -3.02344,1.70656c-0.61813,1.075 -0.61813,2.39187 0,3.46687c0.63156,1.075 1.78719,1.72 3.02344,1.70656c9.28531,0 15.54719,-2.84875 19.2425,-6.5575c3.69531,-3.70875 4.8375,-7.78031 4.8375,-10.6425c0.04031,-0.99437 -0.36281,-1.94844 -1.075,-2.62031c-0.72562,-0.68531 -1.70656,-1.02125 -2.6875,-0.92719zM113.1975,41.1725c-0.14781,0.02688 -0.29562,0.06719 -0.43,0.1075c-1.59906,0.36281 -2.72781,1.80063 -2.6875,3.44c0,4.58219 2.0425,10.4275 6.9875,15.3725c4.945,4.945 12.88656,8.7075 23.9725,8.7075c1.23625,0.01344 2.39188,-0.63156 3.02344,-1.70656c0.61813,-1.075 0.61813,-2.39187 0,-3.46687c-0.63156,-1.075 -1.78719,-1.72 -3.02344,-1.70656c-9.55406,0 -15.3725,-3.1175 -19.0275,-6.7725c-3.655,-3.655 -5.0525,-8.12969 -5.0525,-10.4275c0.04031,-0.99437 -0.36281,-1.94844 -1.075,-2.62031c-0.72562,-0.68531 -1.70656,-1.02125 -2.6875,-0.92719zM36.98,103.2c-1.89469,0.05375 -3.38625,1.65281 -3.3325,3.5475c0.05375,1.89469 1.65281,3.38625 3.5475,3.3325c9.245,1.53188 13.2225,6.46344 15.48,11.7175c2.2575,5.25406 2.365,10.6425 2.365,12.3625c-0.01344,1.23625 0.63156,2.39188 1.70656,3.02344c1.075,0.61813 2.39187,0.61813 3.46687,0c1.075,-0.63156 1.72,-1.78719 1.70656,-3.02344c0,-1.70656 0,-8.37156 -2.9025,-15.1575c-2.9025,-6.78594 -9.20469,-13.89437 -20.64,-15.8025c-0.36281,-0.05375 -0.71219,-0.05375 -1.075,0c-0.1075,0 -0.215,0 -0.3225,0z"></path></g></g></svg>