<svg version="1.1" xmlns="http://www.w3.org/2000/svg" xmlns:xlink="http://www.w3.org/1999/xlink" viewBox="0 0 172 172"><g fill="none" fill-rule="nonzero" stroke="none" stroke-width="1" stroke-linecap="butt" stroke-linejoin="miter" stroke-miterlimit="10" stroke-dasharray="" stroke-dashoffset="0" font-family="none" font-weight="none" font-size="none" text-anchor="none" style="mix-blend-mode: normal"><path d="M0,172v-172h172v172z" fill="none"></path><g fill="#000000"><path d="M86,10.75c-35.55872,0 -64.5,28.9413 -64.5,64.5c0,29.33771 19.7197,54.1263 46.58333,61.91748v13.33252h-19.70833c-1.93842,-0.02741 -3.74144,0.99102 -4.71865,2.66532c-0.97721,1.6743 -0.97721,3.74507 0,5.41937c0.97721,1.6743 2.78023,2.69273 4.71865,2.66532h24.2015c0.57703,0.09479 1.16565,0.09479 1.74268,0h11.68083h11.65983c0.57703,0.09479 1.16565,0.09479 1.74268,0h24.22249c1.93842,0.02741 3.74144,-0.99102 4.71865,-2.66532c0.97721,-1.6743 0.97721,-3.74507 0,-5.41937c-0.97721,-1.6743 -2.78023,-2.69273 -4.71865,-2.66532h-19.70833v-13.33252c26.86364,-7.79118 46.58333,-32.57977 46.58333,-61.91748c0,-35.5587 -28.94128,-64.5 -64.5,-64.5zM86,21.5c29.74899,0 53.75,24.00103 53.75,53.75c0,29.74897 -24.00101,53.75 -53.75,53.75c-29.74899,0 -53.75,-24.00103 -53.75,-53.75c0,-29.74897 24.00101,-53.75 53.75,-53.75zM86,43c-17.74753,0 -32.25,14.50249 -32.25,32.25c0,17.74751 14.50247,32.25 32.25,32.25c17.74753,0 32.25,-14.50249 32.25,-32.25c0,-17.74751 -14.50247,-32.25 -32.25,-32.25zM86,53.75c11.9378,0 21.5,9.56221 21.5,21.5c0,11.93779 -9.5622,21.5 -21.5,21.5c-11.9378,0 -21.5,-9.56221 -21.5,-21.5c0,-11.93779 9.5622,-21.5 21.5,-21.5zM82.95557,61.07764c-6.45,1.3975 -11.2889,7.13139 -11.2889,14.01139c0,7.91917 6.41417,14.33333 14.33333,14.33333c7.91917,0 14.33333,-6.41417 14.33333,-14.33333c0,-0.86 -0.07278,-1.72336 -0.25195,-2.54752c-1.86333,1.57667 -4.26305,2.54752 -6.91472,2.54752c-5.94833,0 -10.75,-4.80167 -10.75,-10.75c0,-1.14667 0.18057,-2.25806 0.5389,-3.26139zM78.83333,139.32308c2.35575,0.26198 4.74233,0.42692 7.16667,0.42692c2.42434,0 4.81092,-0.16494 7.16667,-0.42692v11.17692h-7.16667h-7.16667z"></path></g></g></svg>