<svg version="1.1" xmlns="http://www.w3.org/2000/svg" xmlns:xlink="http://www.w3.org/1999/xlink" viewBox="0 0 172 172"><g fill="none" fill-rule="nonzero" stroke="none" stroke-width="1" stroke-linecap="butt" stroke-linejoin="miter" stroke-miterlimit="10" stroke-dasharray="" stroke-dashoffset="0" font-family="none" font-weight="none" font-size="none" text-anchor="none" style="mix-blend-mode: normal"><path d="M0,172v-172h172v172z" fill="none"></path><g fill="#000000"><path d="M20.64,10.32c-5.65719,0 -10.32,4.66281 -10.32,10.32v112.94219c-0.06719,0.37625 -0.06719,0.7525 0,1.11531v16.6625c0,5.65719 4.66281,10.32 10.32,10.32h130.72c5.65719,0 10.32,-4.66281 10.32,-10.32v-16.62219c0.06719,-0.37625 0.06719,-0.7525 0,-1.11531v-112.9825c0,-5.65719 -4.66281,-10.32 -10.32,-10.32zM20.64,17.2h130.72c1.90813,0 3.44,1.53188 3.44,3.44v110.08h-13.115c-0.04031,-0.02687 -0.08062,-0.04031 -0.25531,-0.26875c-0.48375,-0.65844 -1.15562,-1.96187 -1.74687,-3.62812c-1.1825,-3.34594 -2.08281,-8.19688 -2.08281,-13.30313c-0.02687,-1.88125 -1.55875,-3.38625 -3.44,-3.38625c-1.88125,0 -3.41312,1.505 -3.44,3.38625c0,4.95844 -0.83312,9.84969 -1.97531,13.2225c-0.56437,1.69313 -1.23625,2.99656 -1.72,3.655c-0.18812,0.26875 -0.24187,0.29563 -0.28219,0.3225h-11.2875c-0.3225,-1.10187 -0.69875,-2.795 -1.075,-5.01219c-0.77937,-4.70313 -1.51844,-11.35469 -2.16344,-18.63781c-1.27656,-14.56625 -2.13656,-31.75281 -2.13656,-41.71c-0.02687,-1.88125 -1.55875,-3.38625 -3.44,-3.38625c-1.88125,0 -3.41312,1.505 -3.44,3.38625c0,9.7825 -0.86,26.9825 -2.13656,41.58906c-0.645,7.29656 -1.38406,13.975 -2.16344,18.705c-0.37625,2.24406 -0.7525,3.95062 -1.075,5.06594h-16.39375c-0.04031,-0.215 -0.06719,-0.25531 -0.1075,-0.49719c-0.37625,-1.94844 -0.76594,-4.95844 -1.16906,-8.68063c-0.77937,-7.4175 -1.54531,-17.71062 -2.20375,-28.86375c-1.33031,-22.30625 -2.27094,-48.11969 -2.27094,-61.71844c-0.01344,-0.92719 -0.40312,-1.81406 -1.075,-2.44562c-0.68531,-0.645 -1.58562,-0.98094 -2.51281,-0.94063c-1.8275,0.08063 -3.26531,1.55875 -3.29219,3.38625c0,13.42406 -0.94062,39.2375 -2.27094,61.58406c-0.65844,11.16656 -1.42438,21.5 -2.20375,28.95781c-0.40313,3.72219 -0.79281,6.75906 -1.16906,8.7075c-0.04031,0.25531 -0.06719,0.29562 -0.1075,0.51062h-9.82281c-0.22844,-0.60469 -0.51062,-1.34375 -0.81969,-2.52625c-0.7525,-2.87562 -1.49156,-7.05469 -2.13656,-11.54281c-1.26312,-8.96281 -2.10969,-19.36344 -2.10969,-23.77094c-0.02687,-1.88125 -1.55875,-3.38625 -3.44,-3.38625c-1.88125,0 -3.41312,1.505 -3.44,3.38625c0,4.4075 -0.84656,14.80813 -2.10969,23.77094c-0.645,4.48813 -1.38406,8.66719 -2.13656,11.54281c-0.30906,1.1825 -0.59125,1.92156 -0.81969,2.52625h-19.01406v-110.08c0,-1.90812 1.53188,-3.44 3.44,-3.44zM72.24,108.15844c0.36281,4.74344 0.68531,10.41406 1.075,14.10938c0.40313,3.80281 0.80625,6.92031 1.23625,9.21812c0.22844,1.15563 0.43,2.08281 0.73906,2.95625c0.14781,0.44344 0.30906,0.86 0.69875,1.43781c0.37625,0.56438 1.27656,1.72 3.13094,1.72h20.64c1.12875,0 2.0425,-0.52406 2.58,-0.98094c0.52406,-0.45688 0.79281,-0.87344 1.02125,-1.26313c0.47031,-0.77937 0.71219,-1.49156 0.9675,-2.32469c0.51063,-1.65281 0.94063,-3.73562 1.34375,-6.24844c0.36281,-2.16344 0.63156,-5.52281 0.9675,-8.22375c0.3225,2.72781 0.60469,6.10062 0.9675,8.2775c0.40313,2.51281 0.83313,4.56875 1.34375,6.20812c0.25531,0.83313 0.51063,1.54531 0.9675,2.32469c0.22844,0.38969 0.51063,0.80625 1.03469,1.26312c0.52406,0.44344 1.45125,0.9675 2.56656,0.9675h13.76c2.52625,0 4.16563,-1.58562 5.30781,-3.13094c0.67187,-0.92719 1.10187,-2.19031 1.6125,-3.3325c0.52406,1.1825 0.99437,2.44562 1.67969,3.38625c1.10188,1.49156 2.60688,3.07719 5.16,3.07719h13.76v13.76c0,1.90813 -1.53187,3.44 -3.44,3.44h-130.72c-1.90812,0 -3.44,-1.53187 -3.44,-3.44v-13.76h20.64c1.53188,0 2.60688,-0.84656 3.18469,-1.47812c0.57781,-0.63156 0.90031,-1.22281 1.20938,-1.85438c0.59125,-1.24969 1.03469,-2.66062 1.46469,-4.34031c0.38969,-1.505 0.67188,-3.68187 1.02125,-5.52281c0.34938,1.84094 0.63156,4.01781 1.02125,5.52281c0.43,1.67969 0.87344,3.09063 1.46469,4.34031c0.30906,0.63156 0.63156,1.22281 1.20938,1.85438c0.57781,0.63156 1.65281,1.47812 3.18469,1.47812h13.76c1.85438,0 2.75469,-1.16906 3.13094,-1.73344c0.38969,-0.56438 0.55094,-0.98094 0.69875,-1.42438c0.30906,-0.87344 0.52406,-1.81406 0.73906,-2.96969c0.43,-2.31125 0.83313,-5.42875 1.23625,-9.25844c0.38969,-3.66844 0.71219,-9.32563 1.075,-14.05563z"></path></g></g></svg>