<svg version="1.1" xmlns="http://www.w3.org/2000/svg" xmlns:xlink="http://www.w3.org/1999/xlink" viewBox="0 0 172 172"><g fill="none" fill-rule="nonzero" stroke="none" stroke-width="1" stroke-linecap="butt" stroke-linejoin="miter" stroke-miterlimit="10" stroke-dasharray="" stroke-dashoffset="0" font-family="none" font-weight="none" font-size="none" text-anchor="none" style="mix-blend-mode: normal"><path d="M0,172v-172h172v172z" fill="none"></path><g fill="#ffffff"><path d="M86,6.88c-43.65844,0 -79.12,35.46156 -79.12,79.12c0,43.65844 35.46156,79.12 79.12,79.12c43.65844,0 79.12,-35.46156 79.12,-79.12c0,-43.65844 -35.46156,-79.12 -79.12,-79.12zM86,13.76c39.93625,0 72.24,32.30375 72.24,72.24c0,39.93625 -32.30375,72.24 -72.24,72.24c-39.93625,0 -72.24,-32.30375 -72.24,-72.24c0,-39.93625 32.30375,-72.24 72.24,-72.24zM99.4375,54.9325c-0.14781,0.02688 -0.29562,0.06719 -0.43,0.1075c-1.29,0.22844 -2.32469,1.16906 -2.6875,2.41875c-0.36281,1.26313 0.01344,2.60688 0.9675,3.49375l21.6075,21.6075h-74.175c-0.1075,0 -0.215,0 -0.3225,0c-1.89469,0.09406 -3.37281,1.70656 -3.27875,3.60125c0.09406,1.89469 1.70656,3.37281 3.60125,3.27875h74.175l-21.6075,21.6075c-1.37062,1.37063 -1.37062,3.57438 0,4.945c1.37063,1.37063 3.57438,1.37063 4.945,0l26.9825,-27.09c0.18813,-0.12094 0.37625,-0.26875 0.5375,-0.43c0.08063,-0.1075 0.14781,-0.215 0.215,-0.3225c0.08063,-0.06719 0.14781,-0.13437 0.215,-0.215c0.13438,-0.20156 0.24188,-0.41656 0.3225,-0.645c0.04031,-0.06719 0.08063,-0.14781 0.1075,-0.215c0,-0.04031 0,-0.06719 0,-0.1075c0.04031,-0.1075 0.08063,-0.215 0.1075,-0.3225c0.05375,-0.36281 0.05375,-0.71219 0,-1.075c0,-0.06719 0,-0.14781 0,-0.215c0,-0.04031 0,-0.06719 0,-0.1075c-0.02687,-0.06719 -0.06719,-0.14781 -0.1075,-0.215c0,-0.04031 0,-0.06719 0,-0.1075c-0.02687,-0.06719 -0.06719,-0.14781 -0.1075,-0.215c0,-0.04031 0,-0.06719 0,-0.1075c-0.02687,-0.06719 -0.06719,-0.14781 -0.1075,-0.215c-0.04031,-0.04031 -0.06719,-0.06719 -0.1075,-0.1075c-0.02687,-0.06719 -0.06719,-0.14781 -0.1075,-0.215c-0.12094,-0.18812 -0.26875,-0.37625 -0.43,-0.5375h-0.1075c-0.06719,-0.08062 -0.13437,-0.14781 -0.215,-0.215l-27.1975,-27.305c-0.71219,-0.76594 -1.74687,-1.15562 -2.795,-1.075z"></path></g></g></svg>