<svg version="1.1" xmlns="http://www.w3.org/2000/svg" xmlns:xlink="http://www.w3.org/1999/xlink" viewBox="0 0 172 172"><g fill="none" fill-rule="nonzero" stroke="none" stroke-width="1" stroke-linecap="butt" stroke-linejoin="miter" stroke-miterlimit="10" stroke-dasharray="" stroke-dashoffset="0" font-family="none" font-weight="none" font-size="none" text-anchor="none" style="mix-blend-mode: normal"><path d="M0,172v-172h172v172z" fill="none"></path><g fill="#000000"><path d="M83.3125,6.665c-1.00781,0.1075 -1.90812,0.65844 -2.4725,1.505c-16.19219,21.72844 -25.8,48.67063 -25.8,77.83c0,29.14594 9.52719,56.115 25.6925,77.83c1.12875,1.54531 3.29219,1.88125 4.8375,0.7525c1.54531,-1.12875 1.88125,-3.29219 0.7525,-4.8375c-15.31875,-20.57281 -24.4025,-46.10406 -24.4025,-73.745c0,-27.65437 9.07031,-53.15875 24.4025,-73.745c0.83313,-1.03469 0.99438,-2.44562 0.41656,-3.64156c-0.57781,-1.19594 -1.78719,-1.94844 -3.10406,-1.94844c-0.1075,0 -0.215,0 -0.3225,0zM0,17.2v137.6h6.88v-49.3425c8.02219,-2.83531 13.76,-10.46781 13.76,-19.4575c0,-8.98969 -5.73781,-16.62219 -13.76,-19.4575v-49.3425zM104.06,19.4575c-0.91375,0.14781 -1.72,0.645 -2.2575,1.3975c-14.19,17.91219 -22.6825,40.5275 -22.6825,65.145c0,24.6175 8.4925,47.23281 22.6825,65.145c0.67188,1.15563 1.96188,1.8275 3.29219,1.69313c1.34375,-0.12094 2.48594,-1.00781 2.92938,-2.27094c0.44344,-1.26312 0.12094,-2.67406 -0.84656,-3.61469c-13.26281,-16.74312 -21.1775,-37.92062 -21.1775,-60.9525c0,-23.03187 7.91469,-44.20937 21.1775,-60.9525c0.90031,-1.08844 1.03469,-2.62031 0.34938,-3.85656c-0.69875,-1.23625 -2.06938,-1.92156 -3.46688,-1.73344zM124.5925,32.68c-0.79281,0.13438 -1.51844,0.56438 -2.0425,1.1825c-12.06687,13.96156 -19.35,32.23656 -19.35,52.1375c0,19.90094 7.26969,38.17594 19.35,52.1375c1.24969,1.45125 3.44,1.62594 4.89125,0.37625c1.45125,-1.24969 1.62594,-3.44 0.37625,-4.89125c-11.04562,-12.76562 -17.7375,-29.41469 -17.7375,-47.6225c0,-18.20781 6.70531,-34.85687 17.7375,-47.6225c0.92719,-1.06156 1.11531,-2.58 0.48375,-3.82969c-0.645,-1.26313 -1.98875,-2.00219 -3.38625,-1.86781c-0.1075,0 -0.215,0 -0.3225,0zM145.77,46.01c-0.77937,0.1075 -1.505,0.49719 -2.0425,1.075c-10.15875,9.84969 -16.4475,23.65 -16.4475,38.915c0,15.25156 6.28875,29.06531 16.4475,38.915c1.37063,1.33031 3.56094,1.31688 4.89125,-0.05375c1.33031,-1.37062 1.31688,-3.56094 -0.05375,-4.89125c-8.88219,-8.61344 -14.405,-20.61312 -14.405,-33.97c0,-13.35687 5.52281,-25.35656 14.405,-33.97c1.10188,-0.9675 1.46469,-2.53969 0.91375,-3.89687c-0.56437,-1.35719 -1.92156,-2.20375 -3.38625,-2.12313c-0.1075,0 -0.215,0 -0.3225,0zM167.8075,60.0925c-0.41656,0.06719 -0.81969,0.215 -1.1825,0.43c-9.05687,4.86438 -15.265,14.49906 -15.265,25.4775c0,10.99188 6.18125,20.62656 15.265,25.4775c1.69313,0.88688 3.78938,0.24188 4.67625,-1.45125c0.88688,-1.69312 0.24188,-3.78937 -1.45125,-4.67625c-6.92031,-3.69531 -11.61,-10.92469 -11.61,-19.35c0,-8.41187 4.71656,-15.65469 11.61,-19.35c1.51844,-0.69875 2.32469,-2.37844 1.89469,-4.00437c-0.41656,-1.6125 -1.94844,-2.70094 -3.61469,-2.55313c-0.1075,0 -0.215,0 -0.3225,0z"></path></g></g></svg>