<svg version="1.1" xmlns="http://www.w3.org/2000/svg" xmlns:xlink="http://www.w3.org/1999/xlink" viewBox="0 0 172 172"><g fill="none" fill-rule="nonzero" stroke="none" stroke-width="1" stroke-linecap="butt" stroke-linejoin="miter" stroke-miterlimit="10" stroke-dasharray="" stroke-dashoffset="0" font-family="none" font-weight="none" font-size="none" text-anchor="none" style="mix-blend-mode: normal"><path d="M0,172v-172h172v172z" fill="none"></path><g fill="#000000"><path d="M68.38344,3.44c-16.78903,0 -30.54344,13.43357 -30.54344,29.99922c0,11.01934 6.08543,20.64295 15.10375,25.85375c-13.3219,10.05331 -21.98375,25.96401 -21.98375,43.90703c0,9.06983 2.22557,17.62945 6.12078,25.18187l-14.58641,-4.20594c-1.19008,-0.36885 -2.48659,-0.06543 -3.38941,0.79321c-0.90282,0.85864 -1.27085,2.1383 -0.96214,3.34538c0.30872,1.20708 1.24593,2.15291 2.45013,2.47267l23.17297,6.67844c0.87761,0.25284 1.81974,0.14634 2.61876,-0.29602c0.79903,-0.44236 1.38937,-1.18428 1.64093,-2.06226l6.88,-24.08c0.32186,-1.0637 0.11007,-2.21736 -0.56861,-3.09738c-0.67868,-0.88002 -1.74066,-1.378 -2.85123,-1.337c-1.50503,0.05674 -2.79819,1.08582 -3.19141,2.53969l-4.77031,16.70281c-3.6065,-6.74877 -5.68406,-14.43235 -5.68406,-22.63547c0,-26.63771 21.52229,-48.16 48.16,-48.16c26.63771,0 48.16,21.52229 48.16,48.16c0,26.63771 -21.52229,48.16 -48.16,48.16h-72.24c-1.24059,-0.01754 -2.39452,0.63425 -3.01993,1.7058c-0.62541,1.07155 -0.62541,2.39684 0,3.46839c0.62541,1.07155 1.77935,1.72335 3.01993,1.7058h136.17563l-7.88781,7.88781c-0.89867,0.86281 -1.26068,2.14404 -0.94641,3.34956c0.31427,1.20552 1.2557,2.14696 2.46122,2.46122c1.20552,0.31427 2.48675,-0.04774 3.34956,-0.94641l13.76,-13.76c1.34287,-1.34342 1.34287,-3.52095 0,-4.86437l-13.76,-13.76c-0.64765,-0.66575 -1.53698,-1.04135 -2.46578,-1.04141c-1.39982,0.00037 -2.65984,0.84884 -3.18658,2.14577c-0.52674,1.29693 -0.21516,2.7837 0.78799,3.76001l7.88781,7.88781h-37.34281c16.9446,-9.39171 28.44719,-27.44722 28.44719,-48.16c0,-30.35621 -24.68379,-55.04 -55.04,-55.04c-9.53361,0 -18.50504,2.43841 -26.33078,6.71875c-8.75999,-3.39978 -14.94922,-11.67689 -14.94922,-21.43953c0,-12.77067 10.51759,-23.11922 23.66344,-23.11922c9.09374,0 16.88756,5.01115 20.855,12.27516l-9.44656,-1.88797c-1.22016,-0.27763 -2.49485,0.12915 -3.32864,1.06224c-0.83379,0.93309 -1.0952,2.24532 -0.68261,3.4267c0.41259,1.18137 1.43409,2.04556 2.6675,2.25669l17.2,3.44c1.86261,0.37033 3.67299,-0.8386 4.04469,-2.70094l3.44,-17.2c0.21939,-1.02637 -0.04174,-2.09675 -0.70914,-2.90678c-0.66739,-0.81003 -1.66804,-1.27111 -2.71743,-1.25213c-1.63475,0.03047 -3.02223,1.2073 -3.31906,2.81516l-1.72672,8.61344c-5.32582,-8.87058 -15.09875,-14.82156 -26.27703,-14.82156z"></path></g></g></svg>