<svg version="1.1" xmlns="http://www.w3.org/2000/svg" xmlns:xlink="http://www.w3.org/1999/xlink" viewBox="0 0 172 172"><g fill="none" fill-rule="nonzero" stroke="none" stroke-width="1" stroke-linecap="butt" stroke-linejoin="miter" stroke-miterlimit="10" stroke-dasharray="" stroke-dashoffset="0" font-family="none" font-weight="none" font-size="none" text-anchor="none" style="mix-blend-mode: normal"><path d="M0,172v-172h172v172z" fill="none"></path><g fill="#000000"><path d="M86,0c-22.76312,0 -41.28,18.51688 -41.28,41.28v27.52h-6.88c-3.7625,0 -6.88,3.1175 -6.88,6.88v20.64c0,3.7625 3.1175,6.88 6.88,6.88h20.64v68.8h6.88v-68.8h41.28v68.8h6.88v-68.8h20.64c3.7625,0 6.88,-3.1175 6.88,-6.88v-20.64c0,-3.7625 -3.1175,-6.88 -6.88,-6.88h-6.88v-27.52c0,-22.76312 -18.51687,-41.28 -41.28,-41.28zM86,6.88c19.04094,0 34.4,15.35906 34.4,34.4v27.52h-68.8v-27.52c0,-19.04094 15.35906,-34.4 34.4,-34.4zM37.84,75.68h96.32v20.64h-96.32z"></path></g></g></svg>