<svg version="1.1" xmlns="http://www.w3.org/2000/svg" xmlns:xlink="http://www.w3.org/1999/xlink" viewBox="0 0 172 172"><g fill="none" fill-rule="nonzero" stroke="none" stroke-width="1" stroke-linecap="butt" stroke-linejoin="miter" stroke-miterlimit="10" stroke-dasharray="" stroke-dashoffset="0" font-family="none" font-weight="none" font-size="none" text-anchor="none" style="mix-blend-mode: normal"><path d="M0,172v-172h172v172z" fill="none"></path><g fill="#000000"><path d="M126.5275,13.8675c-1.00781,0.1075 -1.90812,0.65844 -2.4725,1.505l-41.8175,60.3075c-0.28219,0.41656 -0.45687,0.90031 -0.5375,1.3975c-0.215,1.15563 -0.29562,2.31125 -0.215,3.44c-12.72531,1.34375 -21.47312,6.19469 -27.4125,13.115c-6.45,7.525 -9.675,17.05219 -12.5775,26.5525c-2.9025,9.50031 -5.49594,19.0275 -10.105,26.9825c-4.60906,7.955 -10.965,14.405 -22.145,18.1675c-1.54531,0.56438 -2.45906,2.15 -2.20375,3.77594c0.26875,1.62594 1.63938,2.83531 3.27875,2.88906c35.67656,0 61.67813,-2.23062 79.4425,-12.255c17.07906,-9.63469 25.50438,-26.83469 26.1225,-53.535c0.36281,-0.04031 0.72563,-0.04031 1.075,-0.1075c1.00781,-0.18812 1.86781,-0.81969 2.365,-1.72l45.2575,-85.355c0.88688,-1.69312 0.24188,-3.78937 -1.45125,-4.67625c-1.69312,-0.88687 -3.78937,-0.24187 -4.67625,1.45125l-44.075,83.3125c-3.99094,0.13438 -10.97844,-2.01562 -16.6625,-6.235c-3.09062,-2.29781 -5.76469,-5.02562 -7.4175,-7.6325c-1.57219,-2.48594 -1.98875,-4.64937 -1.72,-6.5575l41.065,-59.34c0.81969,-1.10187 0.91375,-2.56656 0.24188,-3.7625c-0.68531,-1.1825 -2.00219,-1.86781 -3.35938,-1.72zM83.635,87.1825c0.29563,0.56438 0.52406,1.1825 0.86,1.72c2.2575,3.57438 5.50938,6.7725 9.1375,9.46c4.75688,3.53406 10.14531,6.28875 15.3725,7.4175c-0.49719,25.45063 -7.64594,39.46594 -22.6825,47.945c-13.02094,7.35031 -34.30594,9.84969 -61.06,10.6425c5.11969,-3.93719 9.07031,-8.62687 12.04,-13.76c5.22719,-9.01656 7.88781,-19.0275 10.75,-28.38c2.86219,-9.3525 5.99313,-17.91219 11.2875,-24.08c5.06594,-5.9125 12.13406,-10.01094 24.295,-10.965z"></path></g></g></svg>