<svg version="1.1" xmlns="http://www.w3.org/2000/svg" xmlns:xlink="http://www.w3.org/1999/xlink" viewBox="0 0 172 172"><g fill="none" fill-rule="nonzero" stroke="none" stroke-width="1" stroke-linecap="butt" stroke-linejoin="miter" stroke-miterlimit="10" stroke-dasharray="" stroke-dashoffset="0" font-family="none" font-weight="none" font-size="none" text-anchor="none" style="mix-blend-mode: normal"><path d="M0,172v-172h172v172z" fill="none"></path><g fill="#000000"><path d="M56.76,10.32c-27.50767,0 -49.88,22.37233 -49.88,49.88v73.96h10.32v27.52h137.6v-27.52h10.32v-37.84c0,-17.0573 -13.9027,-30.96 -30.96,-30.96h-10.30656h-0.01344c-8.99395,-0.04159 -13.02223,-3.72002 -15.41953,-7.43765c-2.3988,-3.71997 -2.73453,-7.37719 -2.73453,-7.37719l-0.02015,-0.20156l-0.04031,-0.19485c-4.65342,-22.73556 -24.79606,-39.82875 -48.86547,-39.82875zM56.76,17.2c20.81572,0 38.1182,14.74948 42.12656,34.33281c0.11155,0.98494 0.74579,5.4611 3.74906,10.11844c3.37867,5.23951 10.14156,10.54326 21.19094,10.58875h0.00672h0.00672h10.32c13.33854,0 24.08,10.74146 24.08,24.08v30.96h-144.48v-67.08c0,-23.78961 19.21039,-43 43,-43zM24.08,134.16h10.32v13.76h6.88v-13.76h6.88v13.76h6.88v-13.76h13.76v13.76h6.88v-13.76h6.88v13.76h6.88v-13.76h6.88v13.76h6.88v-13.76h13.76v13.76h6.88v-13.76h6.88v13.76h6.88v-13.76h10.32v20.64h-123.84z"></path></g></g></svg>