<svg version="1.1" xmlns="http://www.w3.org/2000/svg" xmlns:xlink="http://www.w3.org/1999/xlink" viewBox="0 0 172 172"><g fill="none" fill-rule="nonzero" stroke="none" stroke-width="1" stroke-linecap="butt" stroke-linejoin="miter" stroke-miterlimit="10" stroke-dasharray="" stroke-dashoffset="0" font-family="none" font-weight="none" font-size="none" text-anchor="none" style="mix-blend-mode: normal"><path d="M0,172v-172h172v172z" fill="none"></path><g fill="#000000"><path d="M86.14781,6.88c-0.77938,0.04031 -1.51844,0.34938 -2.09625,0.87344l-9.87656,8.82844l-12.94031,-2.87563c-1.72,-0.37625 -3.45344,0.60469 -4.00437,2.28438l-4.13875,12.5775l-12.64469,3.9775c-1.67969,0.5375 -2.6875,2.24406 -2.33813,3.9775l2.70094,12.96719l-8.93594,9.75562c-1.19594,1.30344 -1.20937,3.30563 -0.04031,4.6225l8.815,9.87656l-2.86219,12.94031c-0.37625,1.72 0.60469,3.45344 2.27094,4.00437l12.5775,4.13875l2.63375,8.37156h-0.22844v58.48c0,1.19594 0.61813,2.29781 1.62594,2.92938c1.02125,0.61812 2.28438,0.68531 3.35938,0.14781l25.97469,-12.99406l25.97469,12.99406c1.075,0.5375 2.33813,0.47031 3.35938,-0.14781c1.00781,-0.63156 1.62594,-1.73344 1.62594,-2.92938v-60.46875l1.94844,-5.92594l12.64469,-3.99094c1.67969,-0.5375 2.6875,-2.24406 2.33812,-3.9775l-2.70094,-12.96719l8.93594,-9.75562c1.19594,-1.30344 1.20938,-3.30563 0.04031,-4.6225l-8.815,-9.87656l2.86219,-12.94031c0.37625,-1.72 -0.60469,-3.45344 -2.27094,-4.00437l-12.5775,-4.15219l-3.99094,-12.63125c-0.5375,-1.67969 -2.24406,-2.6875 -3.9775,-2.33813l-12.96719,2.70094l-9.75562,-8.93594c-0.60469,-0.55094 -1.38406,-0.87344 -2.19031,-0.91375c-0.1075,0 -0.22844,0 -0.33594,0zM86.30906,14.95594l8.77469,8.03563c0.80625,0.7525 1.935,1.06156 3.02344,0.83312l11.65031,-2.41875l3.56094,11.34125c0.33594,1.06156 1.15563,1.89469 2.20375,2.24406l11.30094,3.70875l-2.56656,11.62344c-0.24188,1.075 0.05375,2.21719 0.77937,3.03688l7.92813,8.86875l-8.03563,8.77469c-0.7525,0.80625 -1.06156,1.935 -0.83312,3.02344l2.41875,11.65031l-11.34125,3.56094c-1.06156,0.33594 -1.89469,1.15563 -2.24406,2.20375l-2.74125,8.31781h-0.1075v0.36281l-0.86,2.62031l-11.62344,-2.56656c-1.075,-0.24188 -2.21719,0.05375 -3.03688,0.77937l-8.86875,7.92813l-8.77469,-8.03563c-0.80625,-0.7525 -1.935,-1.06156 -3.02344,-0.83312l-11.65031,2.41875l-3.56094,-11.34125c-0.33594,-1.06156 -1.15563,-1.89469 -2.20375,-2.24406l-11.30094,-3.70875l2.56656,-11.62344c0.24188,-1.075 -0.05375,-2.21719 -0.77937,-3.03688l-7.92813,-8.86875l8.03563,-8.77469c0.7525,-0.80625 1.06156,-1.935 0.83312,-3.02344l-2.41875,-11.65031l11.34125,-3.56094c1.06156,-0.33594 1.89469,-1.15563 2.24406,-2.21719l3.70875,-11.2875l11.62344,2.58c1.075,0.22844 2.21719,-0.06719 3.03688,-0.80625zM86,27.52c-18.96031,0 -34.4,15.43969 -34.4,34.4c0,18.96031 15.43969,34.4 34.4,34.4c18.96031,0 34.4,-15.43969 34.4,-34.4c0,-18.96031 -15.43969,-34.4 -34.4,-34.4zM86,34.4c15.23813,0 27.52,12.28188 27.52,27.52c0,15.23813 -12.28187,27.52 -27.52,27.52c-15.23812,0 -27.52,-12.28187 -27.52,-27.52c0,-15.23812 12.28188,-27.52 27.52,-27.52zM73.57031,107.11031l9.75562,8.93594c1.30344,1.19594 3.30563,1.20938 4.6225,0.04031l9.87656,-8.815l12.255,2.71437v46.13094l-22.53469,-11.27406c-0.98094,-0.48375 -2.10969,-0.48375 -3.09063,0l-22.53469,11.27406v-46.58781z"></path></g></g></svg>