<svg version="1.1" xmlns="http://www.w3.org/2000/svg" xmlns:xlink="http://www.w3.org/1999/xlink" viewBox="0 0 172 172"><g fill="none" fill-rule="nonzero" stroke="none" stroke-width="1" stroke-linecap="butt" stroke-linejoin="miter" stroke-miterlimit="10" stroke-dasharray="" stroke-dashoffset="0" font-family="none" font-weight="none" font-size="none" text-anchor="none" style="mix-blend-mode: normal"><path d="M0,172v-172h172v172z" fill="none"></path><g fill="#000000"><path d="M13.76,17.2c-1.89978,0.00019 -3.43981,1.54022 -3.44,3.44v130.72c0.00019,1.89978 1.54022,3.43981 3.44,3.44h144.48c1.89978,-0.00019 3.43981,-1.54022 3.44,-3.44v-130.72c-0.00019,-1.89978 -1.54022,-3.43981 -3.44,-3.44zM17.2,24.08h137.6v61.92h-137.6zM30.96,34.4c-1.79644,0 -3.62786,0.65817 -4.92484,1.95515c-1.29698,1.29699 -1.95516,3.1284 -1.95516,4.92485v27.52c0,1.79644 0.65817,3.62786 1.95516,4.92485c1.29698,1.29698 3.1284,1.95515 4.92484,1.95515h51.6c1.79644,0 3.62786,-0.65817 4.92485,-1.95515c1.29698,-1.29699 1.95515,-3.1284 1.95515,-4.92485v-27.52c0,-1.79644 -0.65817,-3.62786 -1.95515,-4.92485c-1.29699,-1.29698 -3.1284,-1.95515 -4.92485,-1.95515zM30.96,41.28h51.6v27.52h-51.6zM68.8,44.72v20.64h6.88v-20.64zM110.08,44.72c-5.69958,0 -10.32,4.62042 -10.32,10.32c0,5.69958 4.62042,10.32 10.32,10.32c5.69958,0 10.32,-4.62042 10.32,-10.32c0,-5.69958 -4.62042,-10.32 -10.32,-10.32zM137.6,44.72c-5.69958,0 -10.32,4.62042 -10.32,10.32c0,5.69958 4.62042,10.32 10.32,10.32c5.69958,0 10.32,-4.62042 10.32,-10.32c0,-5.69958 -4.62042,-10.32 -10.32,-10.32zM48.16,48.16v17.2h6.88v-17.2zM58.48,51.6v13.76h6.88v-13.76zM37.84,58.48v6.88h6.88v-6.88zM17.2,92.88h13.84734l0.94734,38.87469c0.344,1.376 1.37197,2.40531 2.74797,2.40531h6.19469c1.376,0 2.40531,-1.02931 2.40531,-2.40531l1.26313,-38.87469h7.08156l0.94734,38.87469c0.344,1.376 1.37197,2.40531 2.74797,2.40531h6.19469c1.376,0 2.40531,-1.02931 2.40531,-2.40531l1.26313,-38.87469h7.08156l0.94734,38.87469c0.344,1.376 1.37197,2.40531 2.74797,2.40531h6.19469c1.376,0 2.40531,-1.02931 2.40531,-2.40531l1.26313,-38.87469h20.84156l0.94734,38.87469c0.344,1.376 1.37197,2.40531 2.74797,2.40531h6.19469c1.376,0 2.40531,-1.02931 2.40531,-2.40531l1.26313,-38.87469h7.08156l0.94734,38.87469c0.344,1.376 1.37197,2.40531 2.74797,2.40531h6.19469c1.376,0 2.40531,-1.02931 2.40531,-2.40531l1.26313,-38.87469h13.87422v55.04h-137.6z"></path></g></g></svg>