<svg version="1.1" xmlns="http://www.w3.org/2000/svg" xmlns:xlink="http://www.w3.org/1999/xlink" viewBox="0 0 172 172"><g fill="none" fill-rule="nonzero" stroke="none" stroke-width="1" stroke-linecap="butt" stroke-linejoin="miter" stroke-miterlimit="10" stroke-dasharray="" stroke-dashoffset="0" font-family="none" font-weight="none" font-size="none" text-anchor="none" style="mix-blend-mode: normal"><path d="M0,172v-172h172v172z" fill="none"></path><g fill="#000000"><path d="M85.91601,8.88135c-2.96578,0.04633 -5.33356,2.48615 -5.29101,5.45199v9.21029c-9.88404,0.84505 -19.60696,4.00466 -28.27474,9.52523c-1.64889,1.01935 -2.62122,2.84754 -2.54469,4.78456c0.07652,1.93702 1.19005,3.6828 2.91421,4.56889c1.72416,0.88609 3.79187,0.77523 5.4114,-0.29014c6.90248,-4.39624 14.62286,-6.9703 22.49382,-7.78255v15.81706c-0.02741,1.93842 0.99102,3.74144 2.66532,4.71865c1.6743,0.97721 3.74507,0.97721 5.41937,0c1.6743,-0.97721 2.69273,-2.78023 2.66532,-4.71865v-15.81706c7.74482,0.80188 15.34815,3.31013 22.16488,7.57959c1.62846,1.04671 3.69394,1.13698 5.40751,0.23633c1.71357,-0.90065 2.81053,-2.65309 2.87188,-4.58795c0.06135,-1.93487 -0.92238,-3.75328 -2.57545,-4.76068c-8.5639,-5.36375 -18.13921,-8.4328 -27.86882,-9.26628v-9.21729c0.02085,-1.45347 -0.54782,-2.85342 -1.57634,-3.88062c-1.02852,-1.0272 -2.4292,-1.59408 -3.88264,-1.57136zM37.41504,50.49561c-1.96515,-0.07524 -3.81454,0.92863 -4.8221,2.61751c-5.22829,8.47445 -8.22166,17.91726 -9.04232,27.51188h-10.11312c-1.93842,-0.02741 -3.74144,0.99102 -4.71865,2.66532c-0.97721,1.6743 -0.97721,3.74507 0,5.41937c0.97721,1.6743 2.78023,2.69273 4.71865,2.66532h10.10612c0.83797,9.77933 3.94189,19.4017 9.35726,28.00179c1.00678,1.66026 2.83065,2.64855 4.77129,2.5854c1.94064,-0.06315 3.6964,-1.16793 4.59311,-2.89013c0.89671,-1.7222 0.795,-3.79412 -0.26609,-5.42021c-4.31174,-6.84743 -6.83793,-14.4891 -7.64258,-22.27686h14.91423c1.93842,0.02741 3.74144,-0.99102 4.71865,-2.66532c0.97721,-1.6743 0.97721,-3.74507 0,-5.41937c-0.97721,-1.6743 -2.78023,-2.69273 -4.71865,-2.66532h-14.92122c0.7891,-7.63458 3.23866,-15.12973 7.39763,-21.87093c1.03423,-1.62463 1.12031,-3.67841 0.22566,-5.38389c-0.89465,-1.70548 -2.63333,-2.80203 -4.55785,-2.87457zM135.16585,50.76856c-1.99186,-0.07671 -3.86263,0.95509 -4.86044,2.68071c-0.99781,1.72562 -0.95881,3.86171 0.10132,5.54976c4.06786,6.67849 6.46371,14.0836 7.24365,21.62598h-14.92122c-1.93842,-0.02741 -3.74144,0.99102 -4.71865,2.66532c-0.97721,1.6743 -0.97721,3.74507 0,5.41937c0.97721,1.6743 2.78023,2.69273 4.71865,2.66532h14.92122c-0.8155,7.89571 -3.40414,15.64479 -7.82454,22.5638c-1.09086,1.61846 -1.21878,3.70103 -0.33417,5.44082c0.8846,1.73979 2.64272,2.86341 4.59315,2.9355c1.95043,0.07209 3.7867,-0.91867 4.79733,-2.5884c5.54985,-8.68686 8.73288,-18.43893 9.58122,-28.35172h10.09912c1.93842,0.02741 3.74144,-0.99102 4.71865,-2.66532c0.97721,-1.6743 0.97721,-3.74507 0,-5.41937c-0.97721,-1.6743 -2.78023,-2.69273 -4.71865,-2.66532h-10.12012c-0.81166,-9.48362 -3.73788,-18.8195 -8.85335,-27.21794c-0.92968,-1.57455 -2.59599,-2.56853 -4.42318,-2.63851zM86,66.29167c-6.12153,0 -11.39327,2.4891 -14.76725,6.28483c-3.37398,3.79573 -4.94108,8.64573 -4.94108,13.4235c0,4.77778 1.5671,9.62778 4.94108,13.4235c3.37398,3.79573 8.64573,6.28483 14.76725,6.28483c6.12153,0 11.39327,-2.4891 14.76725,-6.28483c3.37398,-3.79573 4.94108,-8.64573 4.94108,-13.4235c0,-4.77778 -1.5671,-9.62778 -4.94108,-13.4235c-3.37398,-3.79573 -8.64573,-6.28483 -14.76725,-6.28483zM86,77.04167c3.43403,0 5.32895,1.09423 6.73275,2.6735c1.4038,1.57927 2.22559,3.89594 2.22559,6.28483c0,2.38889 -0.82179,4.70556 -2.22559,6.28483c-1.4038,1.57927 -3.29872,2.6735 -6.73275,2.6735c-3.43403,0 -5.32895,-1.09423 -6.73275,-2.6735c-1.4038,-1.57927 -2.22559,-3.89594 -2.22559,-6.28483c0,-2.38889 0.82179,-4.70556 2.22559,-6.28483c1.4038,-1.57927 3.29872,-2.6735 6.73275,-2.6735zM85.91601,118.17302c-2.96578,0.04633 -5.33356,2.48614 -5.29101,5.45198v14.02539c-7.6389,-0.7904 -15.13982,-3.24054 -21.88493,-7.40462c-1.63527,-1.0093 -3.68481,-1.06941 -5.37642,-0.15768c-1.69161,0.91173 -2.76824,2.65675 -2.82425,4.5776c-0.05601,1.92085 0.91711,3.72564 2.55272,4.73438c8.47914,5.23458 17.93136,8.22848 27.53288,9.04931v11.00895c-0.02741,1.93842 0.99102,3.74144 2.66532,4.71865c1.6743,0.97721 3.74507,0.97721 5.41937,0c1.6743,-0.97721 2.69273,-2.78023 2.66532,-4.71865v-10.99495c9.96013,-0.85435 19.75982,-4.06483 28.4777,-9.6652c2.04919,-1.27603 2.99645,-3.76159 2.31627,-6.0778c-0.68018,-2.3162 -2.82097,-3.89493 -5.23473,-3.86035c-1.02939,0.01566 -2.03264,0.3266 -2.89046,0.89583c-6.94666,4.46254 -14.73207,7.07496 -22.66878,7.89453v-14.02539c0.02085,-1.45347 -0.54782,-2.85342 -1.57635,-3.88062c-1.02852,-1.0272 -2.4292,-1.59408 -3.88264,-1.57136z"></path></g></g></svg>