<svg version="1.1" xmlns="http://www.w3.org/2000/svg" xmlns:xlink="http://www.w3.org/1999/xlink" viewBox="0 0 172 172"><g fill="none" fill-rule="nonzero" stroke="none" stroke-width="1" stroke-linecap="butt" stroke-linejoin="miter" stroke-miterlimit="10" stroke-dasharray="" stroke-dashoffset="0" font-family="none" font-weight="none" font-size="none" text-anchor="none" style="mix-blend-mode: normal"><path d="M0,172v-172h172v172z" fill="none"></path><g fill="#000000"><path d="M27.1975,6.7725c-0.14781,0.02688 -0.29562,0.06719 -0.43,0.1075c-1.59906,0.36281 -2.72781,1.80063 -2.6875,3.44v30.96h30.96c1.23625,0.01344 2.39188,-0.63156 3.02344,-1.70656c0.61813,-1.075 0.61813,-2.39187 0,-3.46687c-0.63156,-1.075 -1.78719,-1.72 -3.02344,-1.70656h-19.565c13.03438,-12.75219 30.83906,-20.64 50.525,-20.64c39.93625,0 72.24,32.30375 72.24,72.24c0,39.93625 -32.30375,72.24 -72.24,72.24c-39.93625,0 -72.24,-32.30375 -72.24,-72.24c0,-11.94594 2.94281,-23.19312 8.0625,-33.11l-6.1275,-3.1175c-5.61687,10.8575 -8.815,23.17969 -8.815,36.2275c0,43.65844 35.46156,79.12 79.12,79.12c43.65844,0 79.12,-35.46156 79.12,-79.12c0,-43.65844 -35.46156,-79.12 -79.12,-79.12c-21.41937,0 -40.79625,8.61344 -55.04,22.4675v-19.0275c0.04031,-0.99437 -0.36281,-1.94844 -1.075,-2.62031c-0.72562,-0.68531 -1.70656,-1.02125 -2.6875,-0.92719zM86,17.2c-1.89469,0 -3.44,1.54531 -3.44,3.44c0,1.89469 1.54531,3.44 3.44,3.44c1.89469,0 3.44,-1.54531 3.44,-3.44c0,-1.89469 -1.54531,-3.44 -3.44,-3.44zM118.68,25.9075c-1.89469,0 -3.44,1.54531 -3.44,3.44c0,1.89469 1.54531,3.44 3.44,3.44c1.89469,0 3.44,-1.54531 3.44,-3.44c0,-1.89469 -1.54531,-3.44 -3.44,-3.44zM142.6525,49.88c-1.89469,0 -3.44,1.54531 -3.44,3.44c0,1.89469 1.54531,3.44 3.44,3.44c1.89469,0 3.44,-1.54531 3.44,-3.44c0,-1.89469 -1.54531,-3.44 -3.44,-3.44zM108.6825,58.1575c-9.51375,0 -16.2325,5.45563 -16.2325,13.115c0,5.20031 3.23844,9.36594 8.2775,10.6425v0.5375c-6.20812,1.27656 -10.2125,6.18125 -10.2125,12.3625c0,8.35813 7.37719,14.19 18.1675,14.19c10.79031,0 18.275,-5.79156 18.275,-14.19c0,-6.24844 -4.09844,-11.18 -10.32,-12.3625v-0.5375c5.10625,-1.30344 8.2775,-5.40187 8.2775,-10.6425c0,-7.65937 -6.71875,-13.115 -16.2325,-13.115zM64.715,59.34c-8.64031,12.94031 -15.86969,24.21438 -20.21,32.1425v6.9875h23.65v9.3525h7.31v-9.3525h6.665v-6.7725h-6.665v-32.3575zM108.6825,64.285c5.30781,0 8.815,3.10406 8.815,7.6325c0,4.47469 -3.5475,7.525 -8.815,7.525c-5.2675,0 -8.815,-3.05031 -8.815,-7.525c0,-4.54187 3.50719,-7.6325 8.815,-7.6325zM67.8325,66.005h0.43v25.9075h-16.4475v-0.5375c5.71094,-9.91687 11.22031,-18.42281 16.0175,-25.37zM20.64,82.56c-1.89469,0 -3.44,1.54531 -3.44,3.44c0,1.89469 1.54531,3.44 3.44,3.44c1.89469,0 3.44,-1.54531 3.44,-3.44c0,-1.89469 -1.54531,-3.44 -3.44,-3.44zM151.36,82.56c-1.89469,0 -3.44,1.54531 -3.44,3.44c0,1.89469 1.54531,3.44 3.44,3.44c1.89469,0 3.44,-1.54531 3.44,-3.44c0,-1.89469 -1.54531,-3.44 -3.44,-3.44zM108.6825,85.6775c6.22156,0 10.535,3.41313 10.535,8.4925c0,5.03906 -4.31344,8.6 -10.535,8.6c-6.22156,0 -10.535,-3.56094 -10.535,-8.6c0,-5.06594 4.31344,-8.4925 10.535,-8.4925zM29.3475,115.24c-1.89469,0 -3.44,1.54531 -3.44,3.44c0,1.89469 1.54531,3.44 3.44,3.44c1.89469,0 3.44,-1.54531 3.44,-3.44c0,-1.89469 -1.54531,-3.44 -3.44,-3.44zM142.6525,115.24c-1.89469,0 -3.44,1.54531 -3.44,3.44c0,1.89469 1.54531,3.44 3.44,3.44c1.89469,0 3.44,-1.54531 3.44,-3.44c0,-1.89469 -1.54531,-3.44 -3.44,-3.44zM53.32,139.2125c-1.89469,0 -3.44,1.54531 -3.44,3.44c0,1.89469 1.54531,3.44 3.44,3.44c1.89469,0 3.44,-1.54531 3.44,-3.44c0,-1.89469 -1.54531,-3.44 -3.44,-3.44zM118.68,139.2125c-1.89469,0 -3.44,1.54531 -3.44,3.44c0,1.89469 1.54531,3.44 3.44,3.44c1.89469,0 3.44,-1.54531 3.44,-3.44c0,-1.89469 -1.54531,-3.44 -3.44,-3.44zM86,147.92c-1.89469,0 -3.44,1.54531 -3.44,3.44c0,1.89469 1.54531,3.44 3.44,3.44c1.89469,0 3.44,-1.54531 3.44,-3.44c0,-1.89469 -1.54531,-3.44 -3.44,-3.44z"></path></g></g></svg>