<svg version="1.1" xmlns="http://www.w3.org/2000/svg" xmlns:xlink="http://www.w3.org/1999/xlink" viewBox="0 0 172 172"><g fill="none" fill-rule="nonzero" stroke="none" stroke-width="1" stroke-linecap="butt" stroke-linejoin="miter" stroke-miterlimit="10" stroke-dasharray="" stroke-dashoffset="0" font-family="none" font-weight="none" font-size="none" text-anchor="none" style="mix-blend-mode: normal"><path d="M0,172v-172h172v172z" fill="none"></path><g fill="#000000"><path d="M72.24,6.88c-15.1575,0 -27.52,12.3625 -27.52,27.52c0,10.15875 5.53625,19.00063 13.76,23.7575v53.105l-17.7375,-17.845c-5.34812,-5.34812 -14.10937,-5.34812 -19.4575,0c-5.34812,5.34813 -5.34812,14.10938 0,19.4575l39.0225,39.13c8.385,8.385 19.75313,13.115 31.605,13.115h25.0475c17.05219,0 30.96,-13.90781 30.96,-30.96v-44.72c0,-7.56531 -6.19469,-13.76 -13.76,-13.76c-2.86219,0 -5.52281,0.84656 -7.74,2.365c-1.88125,-5.36156 -6.92031,-9.245 -12.9,-9.245c-3.39969,0 -6.40969,1.37063 -8.815,3.44c-2.39187,-4.07156 -6.78594,-6.88 -11.825,-6.88c-2.52625,0 -4.8375,0.73906 -6.88,1.935v-9.1375c8.22375,-4.75687 13.76,-13.59875 13.76,-23.7575c0,-15.1575 -12.3625,-27.52 -27.52,-27.52zM72.24,13.76c11.43531,0 20.64,9.20469 20.64,20.64c0,6.1275 -2.64719,11.61 -6.88,15.3725v-15.3725c0,-7.56531 -6.19469,-13.76 -13.76,-13.76c-7.56531,0 -13.76,6.19469 -13.76,13.76v15.3725c-4.23281,-3.7625 -6.88,-9.23156 -6.88,-15.3725c0,-11.43531 9.20469,-20.64 20.64,-20.64zM72.24,27.52c3.84313,0 6.88,3.03688 6.88,6.88v21.285c-0.05375,0.36281 -0.05375,0.71219 0,1.075v29.24c-0.02687,1.06156 0.44344,2.06938 1.26313,2.74125c0.80625,0.67188 1.89469,0.92719 2.92937,0.69875c0.34938,-0.09406 0.67188,-0.24187 0.9675,-0.43c0.06719,-0.02687 0.14781,-0.06719 0.215,-0.1075c0.20156,-0.16125 0.37625,-0.33594 0.5375,-0.5375c0.61813,-0.63156 0.95406,-1.47812 0.9675,-2.365v-6.88c0,-3.84312 3.03688,-6.88 6.88,-6.88c3.84313,0 6.88,3.03688 6.88,6.88v6.88c0.01344,0.215 0.05375,0.43 0.1075,0.645c0.05375,0.33594 0.16125,0.65844 0.3225,0.9675c0.13438,0.30906 0.3225,0.60469 0.5375,0.86c0.16125,0.16125 0.34938,0.30906 0.5375,0.43c0.1075,0.08063 0.215,0.14781 0.3225,0.215c0.30906,0.16125 0.63156,0.26875 0.9675,0.3225c0.45688,0.09406 0.94063,0.09406 1.3975,0c0.34938,-0.09406 0.67188,-0.24187 0.9675,-0.43c0.06719,-0.02687 0.14781,-0.06719 0.215,-0.1075c0.20156,-0.16125 0.37625,-0.33594 0.5375,-0.5375c0.61813,-0.63156 0.95406,-1.47812 0.9675,-2.365v-3.44c0,-3.84312 3.03688,-6.88 6.88,-6.88c3.84313,0 6.88,3.03688 6.88,6.88v6.88c0,0.1075 0,0.215 0,0.3225v3.1175c-0.01344,1.23625 0.63156,2.39188 1.70656,3.02344c1.075,0.61813 2.39187,0.61813 3.46687,0c1.075,-0.63156 1.72,-1.78719 1.70656,-3.02344v-2.9025c0.01344,-0.17469 0.01344,-0.36281 0,-0.5375c0,-3.84312 3.03688,-6.88 6.88,-6.88c3.84313,0 6.88,3.03688 6.88,6.88v44.72c0,13.34344 -10.73656,24.08 -24.08,24.08h-25.0475c-10.03781,0 -19.6725,-3.9775 -26.7675,-11.0725l-39.0225,-39.13c-2.71437,-2.71437 -2.71437,-6.96062 0,-9.675c2.71438,-2.71437 6.96063,-2.71437 9.675,0l23.22,23.1125c0.12094,0.18813 0.26875,0.37625 0.43,0.5375c0.06719,0.08063 0.13438,0.14781 0.215,0.215c0.45688,0.38969 1.02125,0.645 1.6125,0.7525c0.45688,0.09406 0.94063,0.09406 1.3975,0c0.215,-0.05375 0.44344,-0.12094 0.645,-0.215c0.1075,-0.06719 0.215,-0.13437 0.3225,-0.215c0.98094,-0.56437 1.62594,-1.55875 1.72,-2.6875c0,-0.04031 0,-0.06719 0,-0.1075c0,-0.06719 0,-0.14781 0,-0.215c0.01344,-0.14781 0.01344,-0.28219 0,-0.43v-62.565c0.05375,-0.36281 0.05375,-0.71219 0,-1.075v-21.07c0,-3.84312 3.03688,-6.88 6.88,-6.88z"></path></g></g></svg>