<svg version="1.1" xmlns="http://www.w3.org/2000/svg" xmlns:xlink="http://www.w3.org/1999/xlink" viewBox="0 0 172 172"><g fill="none" fill-rule="nonzero" stroke="none" stroke-width="1" stroke-linecap="butt" stroke-linejoin="miter" stroke-miterlimit="10" stroke-dasharray="" stroke-dashoffset="0" font-family="none" font-weight="none" font-size="none" text-anchor="none" style="mix-blend-mode: normal"><path d="M0,172v-172h172v172z" fill="none"></path><g fill="#000000"><path d="M151.64219,86.71219l9.70188,-16.43406c0.38969,-0.81969 0.44344,-1.76031 0.14781,-2.60688l-19.21563,-55.04c-0.59125,-1.67969 -2.35156,-2.63375 -4.05812,-2.21719l-56.47781,13.76c-1.075,0.26875 -1.96188,1.03469 -2.37844,2.06937l-6.00656,15.03656h-18.31531c-0.95406,0 -1.88125,0.40313 -2.52625,1.10188l-41.28,44.72c-1.27656,1.38406 -1.20937,3.53406 0.14781,4.82406l43.29562,41.28c0.63156,0.61813 1.49156,0.95406 2.365,0.95406h19.73969l6.02,15.03656c0.44344,1.11531 1.43781,1.90812 2.60687,2.10969l60.06563,10.32c0.18812,0.04031 0.38969,0.05375 0.57781,0.05375c1.59906,0 3.01,-1.10187 3.35938,-2.70094l12.18781,-55.83281c0.18812,-0.86 0.04031,-1.76031 -0.43,-2.52625zM73.35531,41.28l48.4825,-8.88219l-25.51781,50.16219h-57.90219zM76.79531,134.16l-38.3775,-37.84h57.90219l30.1,45.29781zM138.93031,133.81063l-28.85031,-44.37063l25.22219,-50.16219l16.34,47.44781z"></path></g></g></svg>