<svg version="1.1" xmlns="http://www.w3.org/2000/svg" xmlns:xlink="http://www.w3.org/1999/xlink" viewBox="0 0 172 172"><g fill="none" fill-rule="nonzero" stroke="none" stroke-width="1" stroke-linecap="butt" stroke-linejoin="miter" stroke-miterlimit="10" stroke-dasharray="" stroke-dashoffset="0" font-family="none" font-weight="none" font-size="none" text-anchor="none" style="mix-blend-mode: normal"><path d="M0,172v-172h172v172z" fill="none"></path><g fill="#000000"><path d="M85.6775,10.2125c-0.14781,0.02688 -0.29562,0.06719 -0.43,0.1075c-1.59906,0.36281 -2.72781,1.80063 -2.6875,3.44v98.255l-21.6075,-21.6075c-0.49719,-0.49719 -1.12875,-0.84656 -1.8275,-0.9675c-0.45687,-0.09406 -0.94062,-0.09406 -1.3975,0c-1.29,0.22844 -2.32469,1.16906 -2.6875,2.41875c-0.36281,1.26313 0.01344,2.60688 0.9675,3.49375l27.09,26.9825c0.25531,0.38969 0.57781,0.71219 0.9675,0.9675l1.935,1.935l1.935,-1.935c0.1075,-0.06719 0.215,-0.13437 0.3225,-0.215l0.215,-0.215c0,-0.04031 0,-0.06719 0,-0.1075c0.08063,-0.06719 0.14781,-0.13437 0.215,-0.215l27.305,-27.1975c1.37063,-1.37062 1.37063,-3.57437 0,-4.945c-1.37062,-1.37062 -3.57437,-1.37062 -4.945,0l-21.6075,21.6075v-98.255c0,-0.1075 0,-0.215 0,-0.3225c0,-0.1075 0,-0.215 0,-0.3225c-0.04031,-0.25531 -0.12094,-0.51062 -0.215,-0.7525c-0.06719,-0.08062 -0.13437,-0.14781 -0.215,-0.215c-0.08062,-0.22844 -0.18812,-0.44344 -0.3225,-0.645c-0.06719,-0.08062 -0.13437,-0.14781 -0.215,-0.215c-0.1075,-0.08062 -0.215,-0.14781 -0.3225,-0.215c-0.68531,-0.60469 -1.57219,-0.91375 -2.4725,-0.86zM44.29,108.6825c-0.06719,0.02688 -0.14781,0.06719 -0.215,0.1075c-11.58312,2.28438 -21.36562,5.42875 -28.4875,9.3525c-7.12187,3.92375 -12.1475,8.96281 -12.1475,15.3725c0,4.91813 3.14438,9.11063 7.6325,12.47c4.48813,3.35938 10.54844,6.14094 17.9525,8.4925c14.79469,4.71656 34.83,7.525 56.975,7.525c22.145,0 42.18031,-2.80844 56.975,-7.525c7.40406,-2.35156 13.46438,-5.13312 17.9525,-8.4925c4.48813,-3.35937 7.6325,-7.55187 7.6325,-12.47c0,-6.40969 -5.02562,-11.44875 -12.1475,-15.3725c-7.12187,-3.92375 -16.90437,-7.06812 -28.4875,-9.3525c-1.86781,-0.36281 -3.66844,0.87344 -4.03125,2.74125c-0.36281,1.86781 0.87344,3.66844 2.74125,4.03125c11.11281,2.19031 20.3175,5.21375 26.445,8.6c6.1275,3.38625 8.6,6.82625 8.6,9.3525c0,1.96188 -1.31687,4.23281 -4.8375,6.88c-3.52062,2.64719 -8.98969,5.32125 -15.91,7.525c-13.84062,4.4075 -33.39219,7.2025 -54.9325,7.2025c-21.54031,0 -41.09187,-2.795 -54.9325,-7.2025c-6.92031,-2.20375 -12.38937,-4.87781 -15.91,-7.525c-3.52062,-2.64719 -4.8375,-4.91812 -4.8375,-6.88c0,-2.52625 2.4725,-5.96625 8.6,-9.3525c6.1275,-3.38625 15.33219,-6.40969 26.445,-8.6c1.89469,-0.29562 3.19813,-2.08281 2.9025,-3.9775c-0.29562,-1.89469 -2.08281,-3.19812 -3.9775,-2.9025z"></path></g></g></svg>